<svg xmlns="http://www.w3.org/2000/svg" width="155" height="71" viewBox="0 0 155 71">
    <path fill="#303538" fill-rule="evenodd" d="M48.252 20.594V13.99c-.049-.001-.096-.005-.145-.005-19.505 0-35.317 16.308-35.317 36.424 0 .05.004.1.004.15h6.403c.27-16.428 13.126-29.687 29.055-29.965zm0-13.785V.201C21.584.322 0 22.65 0 50.185c0 .125.009.249.01.374h6.387c.08-23.935 18.72-43.348 41.854-43.75h.001zm.444 23.815c-10.757 0-19.476 8.992-19.476 20.085s8.72 20.086 19.476 20.086c10.755 0 19.474-8.993 19.474-20.086 0-11.093-8.72-20.085-19.474-20.085zm9.633 23.583l-3.876 6.495H37.595l9.35-14.94h-8.64l3.6-5.945H58.33l-8.768 14.39h8.768zm54.21-14.39h-8.223l-7.39 20.935h7.8l.692-2.898h5.729l.602 2.898h8.002l-7.211-20.935zm-6.079 13.365l1.962-7.344 1.49 7.344h-3.452zm34.177-13.315v20.885h13.51v-5.346h-6.484v-2.498h5.862V47.51h-5.862v-2.348h6.395v-5.296h-13.42v.001zm-24.124 0h7.944l3.199 12.691 3.584-12.84h7.557l-7.564 21.034h-7.13l-7.591-20.885zm-46.8-.05h7.461l2.18 13.84 2.42-13.84h5.197l2.606 13.84 2.373-13.84h6.977L93.25 60.752H86.68L84.587 49.81l-2.478 10.942h-6.347l-6.049-20.935z"/>
</svg>
